<?xml version="1.0" encoding="utf-8"?>
<svg xmlns="http://www.w3.org/2000/svg" viewBox="10.661 110.874 418.976 75.693" width="418.976px" height="75.693px"><path d="M 27.611 126.948 C 28.656 126.939 29.701 126.929 30.777 126.919 C 32.469 126.913 32.469 126.913 34.196 126.906 C 35.936 126.898 35.936 126.898 37.712 126.889 C 40.168 126.88 42.624 126.873 45.081 126.869 C 48.838 126.86 52.595 126.829 56.352 126.797 C 58.737 126.791 61.123 126.785 63.508 126.781 C 65.194 126.763 65.194 126.763 66.915 126.744 C 67.966 126.747 69.017 126.75 70.1 126.753 C 71.482 126.748 71.482 126.748 72.892 126.742 C 76.036 127.188 77.922 128.265 80.485 130.11 C 81.611 132.363 81.628 133.628 81.662 136.129 C 81.681 137.37 81.681 137.37 81.701 138.637 C 81.708 139.533 81.716 140.429 81.723 141.352 C 81.731 142.272 81.739 143.192 81.748 144.139 C 81.761 146.088 81.772 148.037 81.78 149.985 C 81.797 152.966 81.841 155.946 81.885 158.926 C 81.895 160.818 81.904 162.71 81.911 164.602 C 81.928 165.494 81.946 166.385 81.964 167.304 C 81.942 173.48 81.942 173.48 79.646 176.641 C 76.226 178.965 73.478 179.24 69.45 179.271 C 68.425 179.28 67.401 179.29 66.345 179.3 C 65.239 179.304 64.132 179.308 62.993 179.313 C 61.286 179.321 61.286 179.321 59.544 179.33 C 57.135 179.339 54.726 179.346 52.316 179.35 C 48.631 179.36 44.947 179.391 41.262 179.422 C 38.922 179.429 36.583 179.434 34.243 179.438 C 33.14 179.45 32.038 179.462 30.903 179.475 C 29.872 179.472 28.841 179.469 27.778 179.466 C 26.875 179.47 25.971 179.473 25.04 179.477 C 21.919 179.028 20.031 177.939 17.485 176.11 C 16.343 173.826 16.347 172.522 16.324 169.983 C 16.314 169.132 16.305 168.281 16.295 167.404 C 16.29 166.483 16.286 165.562 16.282 164.614 C 16.276 163.669 16.27 162.725 16.264 161.751 C 16.255 159.752 16.248 157.752 16.245 155.752 C 16.235 152.688 16.204 149.625 16.172 146.561 C 16.166 144.62 16.161 142.679 16.157 140.739 C 16.144 139.82 16.132 138.901 16.119 137.954 C 16.122 137.1 16.125 136.246 16.128 135.366 C 16.125 134.615 16.121 133.863 16.117 133.089 C 16.591 130.538 17.458 129.688 19.485 128.11 C 22.474 127.113 24.488 126.972 27.611 126.948 Z M 20.485 134.11 C 20.485 136.42 20.485 138.73 20.485 141.11 C 27.085 143.09 33.685 145.07 40.485 147.11 C 41.145 145.79 41.805 144.47 42.485 143.11 C 44.609 143.029 46.735 142.971 48.86 142.922 C 50.043 142.887 51.227 142.853 52.446 142.817 C 53.95 142.962 53.95 142.962 55.485 143.11 C 56.145 144.1 56.805 145.09 57.485 146.11 C 60.256 145.465 63.027 144.819 65.797 144.172 C 66.583 143.99 67.369 143.807 68.178 143.619 C 68.936 143.442 69.693 143.265 70.473 143.082 C 71.17 142.92 71.866 142.758 72.584 142.59 C 74.238 142.172 75.866 141.649 77.485 141.11 C 77.652 137.693 77.652 137.693 77.485 134.11 C 74.926 131.55 73.976 131.857 70.424 131.851 C 69.37 131.845 68.315 131.838 67.229 131.832 C 65.515 131.838 65.515 131.838 63.766 131.844 C 62.597 131.842 61.428 131.84 60.224 131.838 C 57.749 131.837 55.275 131.841 52.8 131.849 C 49.001 131.86 45.202 131.849 41.403 131.836 C 39.003 131.838 36.603 131.84 34.204 131.844 C 33.061 131.84 31.918 131.836 30.741 131.832 C 29.159 131.841 29.159 131.841 27.545 131.851 C 26.614 131.852 25.683 131.854 24.724 131.856 C 22.282 131.897 22.282 131.897 20.485 134.11 Z M 20.485 145.11 C 20.431 149.568 20.391 154.026 20.36 158.485 C 20.343 159.756 20.326 161.027 20.309 162.336 C 20.303 163.548 20.296 164.76 20.29 166.008 C 20.279 167.129 20.269 168.249 20.258 169.404 C 20.204 172.259 20.204 172.259 22.485 174.11 C 24.816 174.416 24.816 174.416 27.545 174.368 C 29.127 174.378 29.127 174.378 30.741 174.388 C 31.884 174.383 33.026 174.379 34.204 174.375 C 35.372 174.377 36.541 174.379 37.745 174.381 C 40.22 174.382 42.695 174.379 45.17 174.37 C 48.969 174.36 52.768 174.37 56.567 174.383 C 58.967 174.382 61.366 174.379 63.766 174.375 C 65.48 174.381 65.48 174.381 67.229 174.388 C 68.283 174.381 69.338 174.375 70.424 174.368 C 71.355 174.367 72.286 174.365 73.246 174.364 C 75.688 174.322 75.688 174.322 77.485 172.11 C 77.763 169.39 77.763 169.39 77.68 166.227 C 77.671 164.477 77.671 164.477 77.661 162.692 C 77.644 161.468 77.627 160.245 77.61 158.985 C 77.601 157.754 77.592 156.523 77.583 155.254 C 77.559 152.206 77.526 149.158 77.485 146.11 C 75.759 146.405 74.034 146.705 72.309 147.008 C 70.868 147.258 70.868 147.258 69.398 147.513 C 65.295 148.353 61.407 149.657 57.485 151.11 C 57.155 152.76 56.825 154.41 56.485 156.11 C 51.535 156.11 46.585 156.11 41.485 156.11 C 41.155 154.46 40.825 152.81 40.485 151.11 C 33.885 149.13 27.285 147.15 20.485 145.11 Z M 45.485 147.11 C 45.485 148.76 45.485 150.41 45.485 152.11 C 48.125 152.11 50.765 152.11 53.485 152.11 C 53.485 150.46 53.485 148.81 53.485 147.11 C 50.845 147.11 48.205 147.11 45.485 147.11 Z" style="stroke-width: 1; fill: rgb(5, 157, 248);"/><path d="M 36.485 114.11 C 38.975 113.721 38.975 113.721 42.079 113.711 C 43.191 113.707 44.304 113.703 45.45 113.699 C 47.2 113.717 47.2 113.717 48.985 113.735 C 50.151 113.723 51.318 113.711 52.52 113.699 C 53.632 113.703 54.745 113.707 55.891 113.711 C 56.915 113.715 57.939 113.718 58.995 113.721 C 59.816 113.85 60.638 113.978 61.485 114.11 C 63.914 117.754 63.647 119.822 63.485 124.11 C 61.835 124.11 60.185 124.11 58.485 124.11 C 58.485 122.13 58.485 120.15 58.485 118.11 C 52.215 118.11 45.945 118.11 39.485 118.11 C 39.485 120.09 39.485 122.07 39.485 124.11 C 37.835 124.11 36.185 124.11 34.485 124.11 C 34.235 117.485 34.235 117.485 36.485 114.11 Z" style="stroke-width: 1; fill: rgb(5, 157, 248);"/><path d="M 45.356 167.977 C 46.533 167.979 47.71 167.982 48.922 167.985 C 50.684 167.981 50.684 167.981 52.481 167.977 C 55.485 168.11 55.485 168.11 57.485 169.11 C 57.155 170.43 56.825 171.75 56.485 173.11 C 51.535 173.11 46.585 173.11 41.485 173.11 C 41.485 168.156 41.485 168.156 45.356 167.977 Z" style="stroke-width: 1; fill: rgb(5, 157, 248);"/><text style="fill: rgb(51, 51, 51); font-family: Arial, sans-serif; font-size: 57px; font-weight: 700; white-space: pre;"><tspan x="89.552" y="172.707" style="fill: rgb(5, 157, 248);">Job</tspan><tspan style="fill: rgb(0, 0, 0);">Catalyst.</tspan></text><text style="white-space: pre; fill: rgb(51, 51, 51); font-family: Arial, sans-serif; font-size: 28px;" x="280.384" y="157.783"> </text><text style="white-space: pre; fill: rgb(51, 51, 51); font-family: Arial, sans-serif; font-size: 28px;" x="71.429" y="239.872"> </text></svg>