<?xml version="1.0" encoding="UTF-8"?>
<svg version="1.1" xmlns="http://www.w3.org/2000/svg" width="65" height="65">
<path d="M0 0 C1.0447348 -0.00960754 2.0894696 -0.01921509 3.16586304 -0.02911377 C4.8580748 -0.03548859 4.8580748 -0.03548859 6.58447266 -0.04199219 C8.32490341 -0.0505423 8.32490341 -0.0505423 10.10049438 -0.05926514 C12.55673307 -0.06871642 15.01298444 -0.07524962 17.46923828 -0.07910156 C21.22662456 -0.08881057 24.98346471 -0.11983499 28.74072266 -0.15136719 C31.12613607 -0.15789691 33.5115534 -0.1631475 35.89697266 -0.16699219 C37.58311172 -0.18551239 37.58311172 -0.18551239 39.30331421 -0.20440674 C40.35435333 -0.20140564 41.40539246 -0.19840454 42.48828125 -0.1953125 C43.8703627 -0.20078094 43.8703627 -0.20078094 45.28036499 -0.20635986 C48.42429004 0.23918337 50.31097642 1.31602307 52.87353516 3.16113281 C54.00011795 5.4142984 54.01679269 6.67915348 54.05053711 9.18017578 C54.06978996 10.42189041 54.06978996 10.42189041 54.08943176 11.68869019 C54.0968187 12.58451813 54.10420563 13.48034607 54.11181641 14.40332031 C54.11988815 15.32323761 54.1279599 16.24315491 54.13627625 17.19094849 C54.15011873 19.13948683 54.16084015 21.08804944 54.16870117 23.03662109 C54.18592686 26.01739343 54.22981253 28.99706037 54.27392578 31.97753906 C54.28405151 33.86945798 54.29256799 35.76138633 54.29931641 37.65332031 C54.31682449 38.54509979 54.33433258 39.43687927 54.35237122 40.35568237 C54.33070919 46.53178265 54.33070919 46.53178265 52.03442383 49.69287109 C48.61439339 52.01668344 45.86639969 52.29177888 41.83886719 52.32226562 C40.81415314 52.33187317 39.78943909 52.34148071 38.7336731 52.35137939 C37.6274057 52.35562927 36.52113831 52.35987915 35.38134766 52.36425781 C33.67421097 52.37280792 33.67421097 52.37280792 31.93258667 52.38153076 C29.52342662 52.3909816 27.11425363 52.39751507 24.70507812 52.40136719 C21.02011579 52.41107595 17.33571039 52.44210063 13.65087891 52.47363281 C11.31103847 52.48016258 8.97119404 52.48541315 6.63134766 52.48925781 C5.52912872 52.50160461 4.42690979 52.51395142 3.29129028 52.52667236 C2.26027191 52.52367126 1.22925354 52.52067017 0.16699219 52.51757812 C-0.73663055 52.52122375 -1.6402533 52.52486938 -2.57125854 52.52862549 C-5.69209274 52.07978356 -7.57986788 50.99003567 -10.12646484 49.16113281 C-11.26839886 46.87726478 -11.26449822 45.57306189 -11.28759766 43.03442383 C-11.2972052 42.18336563 -11.30681274 41.33230743 -11.31671143 40.45545959 C-11.3209613 39.53462082 -11.32521118 38.61378204 -11.32958984 37.66503906 C-11.33528992 36.72055405 -11.34098999 35.77606903 -11.34686279 34.80296326 C-11.35631777 32.80314252 -11.36284875 30.80330617 -11.36669922 28.8034668 C-11.37641462 25.73947104 -11.40743728 22.67614319 -11.43896484 19.61230469 C-11.4454938 17.67155347 -11.45074469 15.73079745 -11.45458984 13.79003906 C-11.46693665 12.87122452 -11.47928345 11.95240997 -11.49200439 11.00575256 C-11.4890033 10.15154221 -11.4860022 9.29733185 -11.48291016 8.41723633 C-11.48655579 7.66604019 -11.49020142 6.91484406 -11.49395752 6.1408844 C-11.02037431 3.58960332 -10.15311088 2.73902045 -8.12646484 1.16113281 C-5.13713852 0.16469071 -3.1233954 0.02318617 0 0 Z M-7.12646484 7.16113281 C-7.12646484 9.47113281 -7.12646484 11.78113281 -7.12646484 14.16113281 C-0.52646484 16.14113281 6.07353516 18.12113281 12.87353516 20.16113281 C13.53353516 18.84113281 14.19353516 17.52113281 14.87353516 16.16113281 C16.99791855 16.0803464 19.12316746 16.0220414 21.24853516 15.97363281 C22.43189453 15.93882813 23.61525391 15.90402344 24.83447266 15.86816406 C26.33880859 16.01318359 26.33880859 16.01318359 27.87353516 16.16113281 C28.53353516 17.15113281 29.19353516 18.14113281 29.87353516 19.16113281 C32.64477552 18.51700668 35.41552961 17.87090533 38.18603516 17.22363281 C38.97171875 17.04123047 39.75740234 16.85882813 40.56689453 16.67089844 C41.32421875 16.49365234 42.08154297 16.31640625 42.86181641 16.13378906 C43.55831299 15.97144775 44.25480957 15.80910645 44.97241211 15.6418457 C46.62697575 15.22347716 48.25447624 14.70081912 49.87353516 14.16113281 C50.04030798 10.74457257 50.04030798 10.74457257 49.87353516 7.16113281 C47.31431908 4.60191673 46.36499797 4.90841412 42.81298828 4.90234375 C41.75849487 4.89603943 40.70400146 4.88973511 39.61755371 4.88323975 C37.90348328 4.88931244 37.90348328 4.88931244 36.15478516 4.89550781 C34.98596802 4.89359436 33.81715088 4.89168091 32.61291504 4.88970947 C30.13810003 4.88834655 27.6632779 4.8920504 25.18847656 4.90039062 C21.38932311 4.91108836 17.59064256 4.90049863 13.79150391 4.88769531 C11.39176327 4.88901689 8.99202294 4.89157924 6.59228516 4.89550781 C5.44957153 4.89145935 4.30685791 4.88741089 3.1295166 4.88323975 C1.54777649 4.89269623 1.54777649 4.89269623 -0.06591797 4.90234375 C-0.99698364 4.90393494 -1.92804932 4.90552612 -2.8873291 4.90716553 C-5.32928947 4.94868319 -5.32928947 4.94868319 -7.12646484 7.16113281 Z M-7.12646484 18.16113281 C-7.18018162 22.61962501 -7.22000255 27.0774767 -7.25146484 31.53613281 C-7.26822266 32.80714844 -7.28498047 34.07816406 -7.30224609 35.38769531 C-7.30869141 36.59941406 -7.31513672 37.81113281 -7.32177734 39.05957031 C-7.33225098 40.18024902 -7.34272461 41.30092773 -7.35351562 42.45556641 C-7.40701807 45.31091125 -7.40701807 45.31091125 -5.12646484 47.16113281 C-2.79567057 47.46745354 -2.79567057 47.46745354 -0.06591797 47.41992188 C1.51582214 47.42937836 1.51582214 47.42937836 3.1295166 47.43902588 C4.27223022 47.43497742 5.41494385 47.43092896 6.59228516 47.42675781 C7.76110229 47.42867126 8.92991943 47.43058472 10.13415527 47.43255615 C12.60897028 47.43391907 15.08379242 47.43021522 17.55859375 47.421875 C21.3577472 47.41117727 25.15642775 47.42176699 28.95556641 47.43457031 C31.35530704 47.43324874 33.75504738 47.43068639 36.15478516 47.42675781 C37.86885559 47.43283051 37.86885559 47.43283051 39.61755371 47.43902588 C40.67204712 47.43272156 41.72654053 47.42641724 42.81298828 47.41992188 C43.74405396 47.41833069 44.67511963 47.4167395 45.63439941 47.4151001 C48.07635979 47.37358243 48.07635979 47.37358243 49.87353516 45.16113281 C50.15198448 42.44178947 50.15198448 42.44178947 50.06884766 39.27832031 C50.05917969 37.52841797 50.05917969 37.52841797 50.04931641 35.74316406 C50.03255859 34.51984375 50.01580078 33.29652344 49.99853516 32.03613281 C49.98951172 30.80507813 49.98048828 29.57402344 49.97119141 28.30566406 C49.94756064 25.25729466 49.9146157 22.20930899 49.87353516 19.16113281 C48.14753973 19.45634643 46.42245405 19.75688123 44.69775391 20.05957031 C43.25662231 20.309729 43.25662231 20.309729 41.78637695 20.56494141 C37.6832198 21.40476286 33.79553871 22.7085389 29.87353516 24.16113281 C29.54353516 25.81113281 29.21353516 27.46113281 28.87353516 29.16113281 C23.92353516 29.16113281 18.97353516 29.16113281 13.87353516 29.16113281 C13.54353516 27.51113281 13.21353516 25.86113281 12.87353516 24.16113281 C6.27353516 22.18113281 -0.32646484 20.20113281 -7.12646484 18.16113281 Z M17.87353516 20.16113281 C17.87353516 21.81113281 17.87353516 23.46113281 17.87353516 25.16113281 C20.51353516 25.16113281 23.15353516 25.16113281 25.87353516 25.16113281 C25.87353516 23.51113281 25.87353516 21.86113281 25.87353516 20.16113281 C23.23353516 20.16113281 20.59353516 20.16113281 17.87353516 20.16113281 Z " fill="#33C4E7" transform="translate(11.12646484375,12.8388671875)"/>
<path d="M0 0 C2.49023438 -0.38818359 2.49023438 -0.38818359 5.59375 -0.3984375 C6.70621094 -0.40230469 7.81867187 -0.40617188 8.96484375 -0.41015625 C10.71474609 -0.39275391 10.71474609 -0.39275391 12.5 -0.375 C13.66660156 -0.38660156 14.83320312 -0.39820312 16.03515625 -0.41015625 C17.14761719 -0.40628906 18.26007812 -0.40242187 19.40625 -0.3984375 C20.43041016 -0.39505371 21.45457031 -0.39166992 22.50976562 -0.38818359 C23.33154297 -0.26008301 24.15332031 -0.13198242 25 0 C27.4294516 3.6441774 27.16179575 5.71241272 27 10 C25.35 10 23.7 10 22 10 C22 8.02 22 6.04 22 4 C15.73 4 9.46 4 3 4 C3 5.98 3 7.96 3 10 C1.35 10 -0.3 10 -2 10 C-2.25 3.375 -2.25 3.375 0 0 Z " fill="#32C5E7" transform="translate(20,0)"/>
<path d="M0 0 C1.17691406 0.00257812 2.35382812 0.00515625 3.56640625 0.0078125 C5.32791016 0.00394531 5.32791016 0.00394531 7.125 0 C10.12890625 0.1328125 10.12890625 0.1328125 12.12890625 1.1328125 C11.79890625 2.4528125 11.46890625 3.7728125 11.12890625 5.1328125 C6.17890625 5.1328125 1.22890625 5.1328125 -3.87109375 5.1328125 C-3.87109375 0.179071 -3.87109375 0.179071 0 0 Z " fill="#32C6E8" transform="translate(28.87109375,53.8671875)"/>
</svg>
